<svg width="200" height="56" viewBox="0 0 200 56" fill="none" xmlns="http://www.w3.org/2000/svg">
    <path d="M107.423 23.1444H102.619L101.946 25.5691H97.6035L102.781 10.9019H107.417L112.589 25.5691H108.108L107.423 23.1444ZM106.54 19.975L105.021 14.7027L103.519 19.975H106.54Z" fill="black"/>
    <path d="M113.868 10.9019H119.46L121.616 19.838L123.76 10.9019H129.345V25.5691H125.862V14.381L123.183 25.5691H120.03L117.351 14.381V25.5691H113.868V10.9019Z" fill="black"/>
    <path d="M132.066 10.9021H140.03C140.584 10.8679 141.139 10.943 141.664 11.123C142.189 11.3029 142.673 11.5842 143.087 11.9506C143.433 12.2898 143.706 12.6959 143.887 13.1437C144.069 13.5914 144.157 14.0714 144.144 14.554C144.165 15.3629 143.894 16.1527 143.381 16.7821C142.987 17.2389 142.474 17.579 141.898 17.765C142.757 17.937 143.53 18.3953 144.09 19.0638C144.572 19.7439 144.818 20.562 144.787 21.3931C144.8 22.1073 144.629 22.813 144.288 23.4425C143.977 24.0345 143.512 24.534 142.943 24.8901C142.442 25.1555 141.893 25.3176 141.327 25.3667C140.697 25.4705 140.061 25.5381 139.424 25.5693H132.066V10.9021ZM136.336 16.6808H138.186C138.677 16.7308 139.169 16.5993 139.568 16.3114C139.703 16.1723 139.808 16.0067 139.875 15.8251C139.942 15.6435 139.971 15.45 139.958 15.257C139.968 15.0722 139.938 14.8875 139.871 14.7151C139.804 14.5425 139.7 14.3862 139.568 14.2561C139.174 13.9771 138.691 13.85 138.21 13.8987H136.336V16.6808ZM136.336 22.4416H138.505C139.055 22.4967 139.607 22.3482 140.054 22.0246C140.205 21.8816 140.323 21.7082 140.401 21.5161C140.479 21.3239 140.514 21.1174 140.505 20.9106C140.512 20.7137 140.475 20.5177 140.397 20.3364C140.32 20.1552 140.202 19.9932 140.054 19.8621C139.596 19.5533 139.043 19.4142 138.493 19.4689H136.336V22.4416Z" fill="black"/>
    <path d="M155.147 23.1444H150.342L149.67 25.5691H145.327L150.499 10.9019H155.141L160.312 25.5691H155.856L155.147 23.1444ZM154.264 19.975L152.745 14.7027L151.243 19.975H154.264Z" fill="black"/>
    <path d="M161.64 10.9019H165.892V21.9589H172.529V25.5691H161.64V10.9019Z" fill="black"/>
    <path d="M182.919 23.1444H178.114L177.441 25.5691H173.099L178.27 10.9019H182.907L188.078 25.5691H183.628L182.919 23.1444ZM182.036 19.975L180.523 14.7027L179.015 19.975H182.036Z" fill="black"/>
    <path d="M195.141 10.9019H199.4V18.8729C199.445 20.1589 199.306 21.4447 198.985 22.6916C198.682 23.5916 198.091 24.3694 197.303 24.9078C196.353 25.5474 195.22 25.867 194.072 25.8193C192.963 25.8768 191.855 25.6727 190.841 25.2236C190.084 24.83 189.466 24.2169 189.069 23.4661C188.622 22.5777 188.372 21.6047 188.336 20.6125L192.397 20.0167C192.383 20.5025 192.437 20.9877 192.559 21.4584C192.649 21.7538 192.825 22.0165 193.063 22.215C193.267 22.3551 193.512 22.4223 193.76 22.4057C193.973 22.4159 194.185 22.3652 194.371 22.2596C194.556 22.154 194.706 21.998 194.805 21.8099C195.073 21.2135 195.188 20.5608 195.141 19.9095V10.9019Z" fill="black"/>
    <path d="M98.2222 45.3067L102.264 45.0327C102.307 45.6023 102.49 46.1528 102.799 46.6352C103.013 46.9269 103.297 47.161 103.625 47.316C103.953 47.471 104.315 47.5421 104.679 47.5229C105.189 47.5567 105.692 47.3945 106.084 47.0701C106.237 46.9388 106.359 46.7769 106.444 46.5952C106.529 46.4134 106.574 46.2159 106.577 46.0156C106.575 45.8221 106.531 45.6313 106.45 45.4556C106.368 45.28 106.249 45.1236 106.102 44.9969C105.445 44.5489 104.693 44.2573 103.904 44.145C102.038 43.7002 100.709 43.1044 99.9159 42.3578C99.5225 41.9994 99.2114 41.5611 99.0042 41.0727C98.7969 40.5844 98.6984 40.0575 98.7147 39.528C98.7111 38.7736 98.9189 38.0331 99.3153 37.3893C99.7579 36.6907 100.403 36.1406 101.165 35.8105C102.236 35.3724 103.389 35.1691 104.546 35.2148C106.308 35.2148 107.65 35.5642 108.571 36.2633C109.062 36.6739 109.462 37.1816 109.746 37.7538C110.029 38.3261 110.189 38.9505 110.216 39.5876L106.21 39.8378C106.159 39.295 105.921 38.7862 105.537 38.3961C105.139 38.0791 104.636 37.9199 104.126 37.9493C103.725 37.9185 103.327 38.0375 103.009 38.2829C102.889 38.3826 102.793 38.5075 102.727 38.6487C102.662 38.7898 102.629 38.9437 102.631 39.099C102.635 39.2202 102.665 39.3391 102.718 39.448C102.772 39.5568 102.849 39.6531 102.943 39.7305C103.372 40.0147 103.861 40.1981 104.372 40.2667C105.753 40.5331 107.095 40.9693 108.366 41.5654C109.095 41.9303 109.704 42.4947 110.12 43.1918C110.49 43.8549 110.678 44.6025 110.667 45.3603C110.674 46.2792 110.42 47.1816 109.934 47.9637C109.447 48.7476 108.736 49.3698 107.892 49.751C106.844 50.188 105.712 50.3913 104.577 50.3467C102.234 50.3467 100.613 49.8701 99.7117 48.905C98.8162 47.9092 98.2906 46.6395 98.2222 45.3067Z" fill="black"/>
    <path d="M112.835 35.4883H124.246V38.6219H117.117V40.9513H123.724V43.93H117.117V46.8253H124.457V50.1436H112.835V35.4883Z" fill="black"/>
    <path d="M126.727 35.4883H133.796C135.333 35.4883 136.487 35.8855 137.255 36.6798C137.66 37.1319 137.969 37.6591 138.166 38.2308C138.362 38.8025 138.443 39.4072 138.402 40.01C138.439 40.6447 138.345 41.2801 138.127 41.8779C137.909 42.4758 137.572 43.0238 137.135 43.4891C136.3 44.3232 135.021 44.7402 133.309 44.7402H130.979V50.1794H126.727V35.4883ZM130.997 41.7436H132.042C132.654 41.8031 133.266 41.6401 133.766 41.2849C133.933 41.1358 134.065 40.9514 134.151 40.7452C134.237 40.5391 134.276 40.3163 134.264 40.0934C134.281 39.6558 134.126 39.2289 133.832 38.9019C133.609 38.7167 133.35 38.5788 133.071 38.4968C132.792 38.4148 132.499 38.3905 132.21 38.4253H131.009L130.997 41.7436Z" fill="black"/>
    <path d="M140.601 35.4883H152.012V38.6219H144.865V40.9513H151.471V43.93H144.865V46.8253H152.204V50.1436H140.601V35.4883Z" fill="black"/>
    <path d="M153.525 35.4883H166.45V39.1104H162.114V50.1555H157.862V39.1104H153.525V35.4883Z" fill="black"/>
    <path d="M168.546 35.4887H172.811V50.156H168.546V35.4887ZM169.231 31.5747H172.18V34.5534H169.231V31.5747Z" fill="black"/>
    <path d="M81.5555 37.6451V31.2646H0V32.337V37.6451V40.3081V46.2715V46.6885H75.1291V49.3515H0V55.7379H81.5555V55.3923V49.3515V46.6885V41.4578V40.3081H6.43243V37.6451H81.5555Z" fill="black"/>
    <path d="M80.024 0.268066C77.4054 0.268066 75.3033 9.94296 75.2192 10.2706H0V28.5957H6.43243V26.0996H75.1291V28.5957H81.5616V11.7659L82.7147 6.40424H90.1982V0.268066H80.024ZM75.1291 19.7191H6.43243V16.6808H75.1291V19.7191Z" fill="#FED700"/>
</svg>