<svg width="448" height="411" viewBox="0 0 448 411" fill="none" xmlns="http://www.w3.org/2000/svg">
<g opacity="0.06">
<path d="M326.391 326.998L341.89 304.864L60.4382 107.79L57.8333 111.51L44.9398 129.924L38.4712 139.162L23.9859 159.849L22.973 161.295L282.247 342.841L275.778 352.079L16.5045 170.533L0.991711 192.688L282.443 389.762L283.283 388.564L297.956 367.608L304.424 358.37L317.13 340.224L319.923 336.236L60.6698 154.705L67.1384 145.467L326.391 326.998Z" fill="black"/>
<path d="M411.896 193.635C402.86 187.308 372.104 215.79 371.018 216.724L111.434 34.9607L66.9214 98.5309L89.12 114.075L95.1831 105.416L332.258 271.417L326.195 280.076L348.394 295.62L389.274 237.237L406.277 221.424L432.103 239.507L447.008 218.221L411.896 193.635ZM347.757 249.283L110.682 83.2814L118.062 72.7415L355.137 238.743L347.757 249.283Z" fill="#FED700"/>
</g>
</svg>
